<?xml version="1.0" encoding="UTF-8"?>
<svg id="Layer_2" data-name="Layer 2" xmlns="http://www.w3.org/2000/svg" viewBox="0 0 156.33 189.38">
  <defs>
    <style>
      .cls-1 {
        fill: #231f20;
        stroke-width: 0px;
      }
    </style>
  </defs>
  <g id="Layer_1-2" data-name="Layer 1">
    <g>
      <path class="cls-1" d="M99.1,111.5c.6,1.19,2.28-5.06,2.28-5.06-2.78.5-4.56.69-4.56.69,0,0,1.69,3.17,2.28,4.36Z"/>
      <path class="cls-1" d="M97.81,128.65c.6,1.19,2.28-5.06,2.28-5.06-2.78.5-4.56.69-4.56.69,0,0,1.69,3.17,2.28,4.36Z"/>
      <path class="cls-1" d="M92.26,124.69c-2.78.5-4.56.69-4.56.69,0,0,1.69,3.17,2.28,4.36s2.28-5.06,2.28-5.06Z"/>
      <path class="cls-1" d="M94.54,119.63c.6,1.19,2.28-5.06,2.28-5.06-2.78.5-4.56.69-4.56.69,0,0,1.69,3.17,2.28,4.36Z"/>
      <path class="cls-1" d="M104.66,114.57c-2.78.5-4.56.69-4.56.69,0,0,1.69,3.17,2.28,4.36.6,1.19,2.28-5.06,2.28-5.06Z"/>
      <path class="cls-1" d="M95.96,162.41c-1.82.54-4.86,1.57-7.45,2.26-1.38.36-2.37.48-3.12.39-1.14-.19-1.59-1.2-1.83-3.05-.04-.38-.09-.87-.16-1.42-.36-3.05-1.19-10.2.76-10.61,14.52-4.34,23.57-11.2,26.9-20.37,3.57-9.85.56-22.19-8.96-36.67-5.75-10.83-1.98-13.42-.87-14.05.48-.27,1.53-.39,2.99-.39,1.07,0,2.44.11,4.11.25l.43.04v-.43c0-2.13-1.71-4.34-3.07-6.12-.24-.31-.47-.61-.67-.89.81-.5,1.3-1.19,1.49-2.06.57-2.73-2.15-6.6-4.53-9.38-3-3.5-6.89-5.42-10.95-5.42-3.57,0-7.12,1.52-9.72,4.17-2.86,2.91-4.39,6.89-4.31,11.22,0,.48.06,1.61.36,2.24.37,0,1.45-.69,2.07-.92.69-.25,1.52-.35,2.33-.35.64,0,1.24.23,1.81.78-3.18,3.82-3.63,9.57-4.07,15.13-.55,7.06-1.46,12.78-6.32,16.86-.36.31-.82.57-1.17.57-.32,0-3.17-1.09-9.87-7.79-1.65-1.65-6.33-5.54-6.77-5.88-.86-.68-1.54-1.21-2.71-1.78-.49-.25-1.11-.38-1.77-.38-.84,0-1.73.21-2.44.57-5.35,2.75-9.66,7.83-13.17,12.43-1.7,2.23-2.54,4.91-2.38,7.56.2,3.26,1.1,6.6,2.06,9.72h-.01c2.94,9.07,4.03,12.24,4.9,13.2.62-.78,1.27-3.78,1.82-5.24.13-.35.26-.72.41-1.12.77-2.13,1.77-4.93,3.44-7.56-1.64,8.02.82,19.61,1.35,20.57.5-.46,1.72-1.36,3.34-4l4.61-7.41c.32,5.65.35,9.41.35,12.51v.42c0,2.19-.15,3.71.11,4.8.92.7,2.29,1,4.81,1.69.71.19,1.48.43,2.35.7,2.12.66,4.76,1.47,8.47,2.25.31.06.53.33.53.63v1.14c.02,3.57.05,8.97-1.09,11.89-.43,1.09-.87,2.29-1.95,2.29-14.7-1.66-25.63-11.16-35.69-21.14-27.79-32.37-4.75-75,16.92-105.9,24.11-30.07,35.46-26.48,58.26,2.88,19.53,25.42,37.08,62.76,20.63,93.73-6.07,13.64-19.03,22.75-32.57,27.47h.02Z"/>
      <path class="cls-1" d="M16.12,139.68c.34.23.56.44.66.64.08.16.14.37.19.63.04.45-.14.78-.55.98l-.03.02c-.05.05-.07.16-.04.3.03.12.07.24.13.37l.27.54c.04.08.09.18.15.3.06.12.14.24.23.35.09.11.16.15.22.13l.06-.03.12-.05.05-.04c.94-.54,1.39-1.21,1.35-2.01-.05-.8-.26-1.66-.64-2.58-.61-.96-1.13-1.57-1.56-1.81-.45-.23-.72-.37-.82-.4-.19-.07-.59-.09-1.19-.05-.31.04-.63.14-.95.3-.34.17-.78.47-1.3.92-.53.45-.84,1.01-.93,1.68-.16.55-.18,1.18-.07,1.91.07.55.1,1.19.07,1.91.03.54-.05.92-.23,1.15-.16.21-.4.39-.71.54l-.09.05c-.79.38-1.53.2-2.23-.55-.2-.24-.37-.49-.5-.77l-.11-.24c-.22-.45-.21-.87.03-1.26.24-.39.56-.68.97-.9,0-.09-.05-.23-.14-.4-.05-.1-.14-.27-.28-.5-.14-.23-.33-.49-.57-.77-.24-.28-.43-.39-.57-.33-.18.12-.39.32-.64.62-.25.3-.46.6-.62.92-.17.32-.21.56-.14.73-.15.31-.14.89.04,1.72.08.4.22.86.41,1.4.31.48.59.88.86,1.2.56.66,1,1.02,1.33,1.08.09.17.3.32.61.43.32.11.65.18.99.2.34.02.6,0,.78-.08.05.03.19.02.39-.05.26-.09.58-.23.93-.4.45-.22.73-.38.86-.5.34-.36.57-.78.7-1.24.05-.16.09-.27.13-.35.07-.34.1-.68.09-1.01,0-.03-.03-.19-.06-.49-.03-.29-.07-.63-.11-1.02-.03-.21-.09-.74-.18-1.6,0-.48.16-.89.48-1.23.2-.22.43-.38.67-.5.14-.07.36-.14.65-.2.29-.06.58.05.87.33Z"/>
      <path class="cls-1" d="M29.31,155.71c-.18-.19-.4-.36-.66-.49-.73.47-1.42.97-2.07,1.52-.3.25-.79.69-1.5,1.33-.6.55-1.04.94-1.29,1.16-.28.23-.98.68-2.1,1.33-.72.42-1.4.48-2.03.18-.53-.24-.98-.58-1.34-1.01-.07-.09-.22-.29-.45-.62-.23-.33-.33-.68-.3-1.05.02-.19.15-.54.37-1.06.17-.36.25-.6.26-.7.21-.15.43-.32.65-.51.22-.19.45-.39.67-.6.23-.21.44-.4.63-.56.24-.2.71-.63,1.44-1.3.14-.09.37-.28.7-.55.32-.28.66-.59,1.03-.93.36-.34.67-.64.94-.9.26-.26.4-.42.42-.47-.05-.24-.19-.49-.42-.76-.03-.04-.12-.14-.29-.32-.16-.18-.37-.33-.63-.46-.75.48-1.45.99-2.11,1.55l-2.52,2.25-.23.18c-.1.08-.17.15-.23.22l-.08.07c-.19.04-.41.16-.65.37-.56.47-1.15,1.2-1.76,2.2-.39.62-.63,1.12-.73,1.5-.27,1.14.03,2.21.89,3.23.33.39.78.83,1.36,1.31.58.49,1.17.82,1.76,1,.66.3,1.39.41,2.18.32.8-.09,1.49-.29,2.09-.61.11-.06.23-.11.37-.16.24-.08.45-.19.63-.34.08-.09.13-.15.15-.19.04-.07.1-.14.19-.21l.23-.13c.16-.08.3-.16.41-.26.31-.26.88-.77,1.7-1.54.11-.07.28-.2.52-.4.32-.27.72-.63,1.22-1.08.85-.79,1.3-1.25,1.35-1.38-.05-.23-.19-.49-.43-.77-.04-.05-.15-.17-.33-.37Z"/>
      <path class="cls-1" d="M43.86,167.36c-.05-.04-.19-.12-.42-.26-.23-.14-.48-.24-.76-.29-.58.65-1.11,1.32-1.58,2.02-.22.32-.58.88-1.08,1.68-.43.7-.74,1.18-.93,1.46-.2.3-.75.92-1.66,1.85-.58.6-1.21.84-1.91.73-.58-.09-1.1-.29-1.56-.61-.09-.06-.29-.22-.6-.48-.31-.26-.5-.57-.57-.93-.03-.19,0-.56.07-1.12.06-.4.08-.64.06-.75.16-.2.33-.43.49-.67.16-.24.33-.49.48-.76.16-.26.31-.5.45-.71.17-.26.52-.8,1.03-1.64.11-.13.28-.37.52-.72.23-.36.48-.75.74-1.17.26-.42.47-.8.66-1.12.18-.33.27-.51.28-.57-.11-.21-.32-.42-.61-.62-.04-.02-.16-.1-.36-.23-.2-.13-.45-.22-.73-.27-.59.66-1.13,1.35-1.61,2.07l-1.82,2.85-.17.24c-.07.1-.12.19-.16.28l-.06.09c-.17.09-.35.27-.53.53-.41.6-.78,1.47-1.1,2.6-.21.7-.3,1.24-.29,1.64.05,1.17.63,2.12,1.73,2.87.42.29.98.58,1.66.9.69.31,1.34.47,1.97.48.72.11,1.45.02,2.19-.28s1.36-.69,1.84-1.15c.09-.09.2-.17.31-.25.2-.14.38-.31.51-.5.06-.11.09-.18.09-.22.02-.07.06-.16.12-.25l.19-.19c.13-.12.24-.24.33-.36.23-.33.63-.98,1.22-1.94.09-.1.22-.27.39-.52.23-.34.53-.8.88-1.37.6-.99.91-1.55.92-1.69-.11-.21-.32-.42-.62-.62Z"/>
      <path class="cls-1" d="M57.68,174.71c-.02-.2-.16-.43-.41-.68-.26-.25-.55-.48-.87-.68-.32-.2-.58-.34-.8-.42l-.62-.23c-1.08-.39-2.18-.71-3.29-.95-.18.43-.35.87-.51,1.32-.2.55-.32.89-.36,1.02-.05.16-.11.33-.17.51-.15.42-.3.73-.44.93-.09.34-.21.72-.36,1.15-.32.9-.63,1.7-.92,2.4-.17.39-.32.79-.47,1.18-.17.49-.33.98-.47,1.47-.05.17-.13.42-.25.74-.2.55-.3.89-.31,1.01.14.18.35.32.64.42.09.03.19.06.29.09.44.11.81.18,1.12.2.28-.29.67-1.11,1.16-2.47.15-.42.25-.76.29-1.04l.02-.09s.03-.05.06-.06c.03-.02.06-.03.08-.05,0,.05.08.61.23,1.68.15,1.07.26,1.67.32,1.79.01.07.02.15.02.25s.01.2.02.32c0,.26,0,.43.04.51.15.09.48.22.98.4.85.3,1.36.44,1.54.41.02-.02.04-.04.05-.08.07-.2.03-.63-.13-1.29-.18-.77-.33-1.21-.44-1.33.05-.15-.16-.99-.61-2.53l-.25-.85c.21,0,.44.03.71.07.27.04.55.07.83.09.2,0,.43,0,.7-.02.27-.01.49-.04.66-.09.45-.05.86-.24,1.21-.58.35-.34.59-.67.7-.97.04-.12.07-.24.09-.36.07-.05.13-.12.16-.2.03-.08.06-.15.08-.19l.11-.36c.11-.38.14-.8.09-1.27-.05-.47-.23-.85-.54-1.15ZM55.76,176.91c-.1.29-.33.57-.67.83-.6.47-1.44.51-2.52.12l-.46-.19c.1-.27.16-.47.19-.58.02-.08.05-.16.08-.25.07-.21.16-.41.27-.61.07-.12.17-.35.29-.69.26-.77.42-1.32.48-1.64l.33.11c1.44.52,2.16,1.23,2.18,2.13-.02.3-.08.56-.15.77Z"/>
      <path class="cls-1" d="M71.04,176.38c-.24-.03-.48-.06-.74-.07-.25-.02-.49-.04-.71-.07-.26-.03-.5-.07-.74-.11-.54-.09-1.05-.17-1.53-.23-1.14-.15-1.81-.17-2-.05-.18.83-.33,1.66-.44,2.48-.06.47-.08.81-.06,1.02-.13.21-.31,1.13-.52,2.76-.17,1.26-.33,2.71-.49,4.36-.08.87-.13,1.44-.14,1.7.38.09.81.16,1.28.22l.67.08.93.11v.02c.75.12,1.27.2,1.54.24l.32.04,1.6.13.44.06c.18.02.35.02.49,0,.18-.03.32-.16.4-.4s.15-.5.2-.8c.04-.29.02-.56-.05-.79-.08-.08-.76-.2-2.03-.36-1.77-.23-2.95-.44-3.54-.62l.43-2.68,1.82.17,1.05.13.47.07c.89.12,1.46.11,1.69-.01.14-.08.23-.25.26-.51.03-.24.02-.56-.03-.96-.23-.14-.66-.26-1.29-.37-.63-.11-1.28-.2-1.96-.29-1.1-.14-1.69-.25-1.78-.32,0-.12.02-.27.04-.46.06-.45.13-.91.22-1.39l.08-.55.07-.56.1-.67c.22.02.64.07,1.27.15l1.98.28,2,.27c.16.02.28-.07.35-.28.04-.13.07-.26.09-.42.05-.34.05-.64,0-.9-.53-.21-1.13-.36-1.81-.44Z"/>
      <path class="cls-1" d="M86.29,178.42c-.28-.49-.51-.8-.67-.92-.08-.06-.35-.21-.8-.46-.31-.16-.82-.28-1.54-.36-.87-.09-1.67-.12-2.41-.06-.52.04-.88.12-1.08.25-.02.12-.04.33-.05.63,0,.3-.01.55,0,.76,0,.21,0,.36.02.45,0,.14.02.24.04.32-.09.08-.11.5-.06,1.26l.02.27.15,1.44c.05.66.07,1.43.06,2.3-.02.82,0,1.6.05,2.32.07.98.2,1.89.38,2.71.27.06.56.09.89.06h.13c.38-.05.7-.14.94-.27-.1-.21-.16-.43-.17-.67v-.13c-.01-.11-.02-.25-.03-.42l-.03-.28c-.05-.66-.05-1.56,0-2.72.02-.56.05-.95.08-1.18,1-.15,1.93-.45,2.79-.91.32-.19.62-.51.89-.95.27-.44.43-.84.47-1.18.15-.25.22-.5.21-.75,0-.24-.02-.37-.02-.39-.03-.44-.12-.8-.26-1.1ZM82.01,181.52c0-.67-.01-1.33-.06-1.97l-.09-1.22c.19-.01.48,0,.87.05.39.05.69.1.89.17.57.24.89.64.95,1.21.03.95-.82,1.54-2.56,1.76Z"/>
      <path class="cls-1" d="M102.94,183.18c-.11-.04-.77.12-2,.47-1.71.49-2.88.77-3.5.84l-.67-2.63,1.74-.57,1.01-.3.46-.12c.87-.25,1.38-.47,1.55-.68.1-.13.11-.32.04-.57-.07-.23-.2-.52-.41-.86-.27-.03-.71.02-1.33.18-.62.15-1.26.32-1.91.51-1.07.3-1.66.44-1.76.42-.05-.11-.09-.26-.15-.44-.12-.43-.24-.89-.35-1.36l-.14-.54-.15-.54-.18-.65c.2-.07.61-.19,1.23-.37l1.93-.53,1.94-.54c.16-.04.23-.18.21-.39-.01-.13-.04-.27-.08-.42-.09-.33-.21-.61-.35-.83-.57.02-1.18.12-1.83.31-.23.07-.47.14-.7.22-.24.08-.46.16-.68.22-.25.07-.49.13-.72.19-.53.13-1.03.27-1.49.4-1.11.32-1.73.57-1.85.75.16.84.36,1.65.59,2.45.13.46.25.78.36.96-.04.25.17,1.16.62,2.74.35,1.22.78,2.62,1.29,4.19.27.83.45,1.37.55,1.62.39-.07.81-.17,1.27-.3l.65-.19.9-.27v.02c.75-.19,1.25-.32,1.51-.39l.31-.09,1.52-.52.42-.12c.18-.05.33-.11.45-.19.16-.1.23-.27.21-.52-.01-.25-.06-.52-.14-.81-.08-.29-.2-.52-.36-.7Z"/>
      <path class="cls-1" d="M118.62,176.67c-.14-.26-.31-.46-.51-.61-.11-.01-.73.28-1.85.89-1.57.85-2.64,1.37-3.23,1.58l-1.22-2.42,1.58-.93.92-.51.43-.22c.79-.43,1.25-.76,1.36-1,.07-.15.04-.33-.09-.57-.12-.21-.31-.47-.59-.75-.27.02-.69.18-1.26.46-.57.28-1.16.59-1.76.91-.98.53-1.52.79-1.63.79-.07-.1-.15-.23-.24-.4-.21-.4-.43-.82-.63-1.26l-.26-.5-.27-.49-.31-.6c.18-.11.56-.32,1.12-.63l1.76-.93,1.78-.95c.14-.08.18-.22.12-.43-.04-.13-.09-.26-.17-.39-.16-.3-.34-.55-.52-.73-.55.14-1.13.38-1.72.7-.21.12-.43.24-.64.37-.21.13-.42.25-.61.36-.23.12-.45.24-.66.34-.49.25-.95.48-1.37.71-1.02.55-1.56.93-1.65,1.13.34.78.71,1.54,1.1,2.27.23.42.41.71.56.86.02.25.41,1.09,1.2,2.54.6,1.12,1.32,2.39,2.16,3.81.44.75.74,1.24.89,1.46.36-.16.75-.35,1.17-.57l.59-.33.82-.46v.02c.69-.34,1.15-.58,1.39-.71l.28-.15,1.37-.83.39-.21c.16-.09.29-.18.4-.29.13-.13.16-.32.09-.56-.07-.24-.17-.49-.31-.76Z"/>
      <path class="cls-1" d="M130.36,167.66c-.26-.3-.49-.61-.69-.92-.29-.41-.56-.77-.82-1.08l-2.62-3.02-.54-.52-1.31-1.4c.14-.18.74-.74,1.8-1.68.51-.45.87-.75,1.07-.89-.02-.1-.03-.18-.03-.24-.01-.12-.05-.23-.12-.32-.04-.06-.14-.17-.29-.35-.33-.38-.59-.62-.76-.74l-6.11,5.4c-.81.79-1.43,1.45-1.86,1.96.1.25.28.52.54.82.26.27.51.5.76.69.04-.02.13-.09.28-.23.15-.13.34-.31.57-.53.38-.35.8-.73,1.24-1.12.45-.4.85-.72,1.19-.96.04.04.08.08.12.12l.1.13c.17.2.34.34.49.43.05.13.16.3.34.5.17.19.34.37.52.55.1.1.19.19.26.26l.29.34.5.58c.17.19.31.33.43.41.08.22.66.98,1.73,2.28.46.57.92,1.12,1.39,1.64.27.31.46.49.56.56.11.02.29-.05.54-.22.25-.17.45-.32.62-.47.47-.42.69-.76.65-1.01-.12-.17-.26-.33-.4-.49l-.44-.47Z"/>
      <path class="cls-1" d="M142.5,153.69c-.79-.04-1.26-.02-1.4.05-.13-.09-1-.13-2.6-.12h-.89c.06-.2.15-.42.27-.67.12-.25.22-.5.32-.77.06-.19.12-.42.18-.68.06-.26.09-.48.1-.65.08-.45,0-.89-.22-1.33-.23-.43-.48-.75-.74-.94-.1-.07-.21-.13-.32-.18-.03-.09-.08-.16-.15-.21-.07-.05-.12-.09-.17-.13l-.31-.2c-.33-.21-.73-.36-1.2-.44-.47-.09-.88-.02-1.25.2-.2-.04-.46.03-.77.21-.32.18-.61.39-.9.64-.28.25-.49.47-.63.65l-.4.53c-.67.93-1.28,1.89-1.83,2.89.36.3.74.58,1.12.86.47.34.76.55.88.62.14.1.29.2.44.31.36.26.62.49.77.68.3.18.64.4,1,.67.77.56,1.46,1.08,2.05,1.55.33.27.67.53,1.01.78.42.3.84.59,1.28.86.15.09.37.24.65.44.47.35.77.54.89.58.21-.08.4-.25.58-.5.06-.08.11-.16.16-.26.23-.39.4-.73.51-1.02-.2-.35-.88-.95-2.05-1.8-.36-.26-.67-.45-.92-.57l-.08-.04s-.04-.04-.05-.08c0-.03-.01-.06-.02-.09.05.01.61.1,1.68.25,1.07.16,1.67.22,1.81.19.07,0,.15.02.25.05s.2.05.31.07c.25.07.41.11.5.1.12-.12.34-.4.66-.83.53-.73.8-1.18.82-1.36-.01-.02-.03-.05-.06-.07-.17-.12-.59-.2-1.28-.24ZM135.71,153.39l-.31.39c-.24-.17-.4-.29-.51-.34-.07-.04-.14-.09-.21-.14-.18-.13-.35-.27-.51-.43-.09-.1-.29-.26-.58-.47-.67-.47-1.15-.77-1.45-.92l.19-.28c.9-1.24,1.78-1.73,2.66-1.49.28.11.51.23.7.36.25.18.45.47.61.88.29.71.09,1.53-.58,2.45Z"/>
      <path class="cls-1" d="M149.33,141.46c-.05-.03-.11-.06-.17-.09l-.31-.1c-.07.03-.14.14-.23.33-.05.1-.09.18-.13.23-.04.05-.07.1-.09.15-.04.08-.06.16-.08.26l-.06.22s-.05.03-.09.07c-.66-.28-1.4-.61-2.21-.98-1.4-.63-2.7-1.2-3.91-1.7-.12-.08-.33-.18-.62-.32-.46-.21-.98-.43-1.57-.67.05-.11.08-.18.09-.21,0-.03.02-.07.04-.11.02-.04.04-.09.05-.15.02-.06.04-.11.06-.16l.22-.45c.07-.16.12-.28.12-.37l-.57-.35c-.1-.04-.23-.09-.38-.17-.05-.03-.11-.06-.17-.09l-.32-.1c-.07.03-.15.14-.24.33l-.03.07c-.03.07-.06.13-.1.17-.03.04-.06.09-.09.14-.04.08-.06.16-.08.24-.02.08-.03.16-.06.24-.11.05-.29.32-.52.83-.14.3-.23.54-.28.7l-.24.6c-.05.06-.11.15-.17.28-.02.05-.06.14-.12.29-.06.14-.11.32-.17.54-.06.22-.08.34-.06.39.14.13.32.25.54.34.28.13.54.23.77.28.21-.22.39-.47.52-.77l.21-.44c.3.15.6.3.9.44.28.13.83.37,1.64.71.75.31,1.61.69,2.58,1.14,1.15.53,1.8.83,1.95.88.08.02.15.05.21.08.11.05.23.1.37.15.19.07.42.16.67.28-.05.06-.11.16-.17.29-.02.05-.06.15-.12.3-.05.14-.11.32-.16.52-.05.2-.07.33-.05.37.15.13.33.25.54.35.27.13.53.22.76.28.22-.23.41-.5.55-.81l.11-.23.35-.82.14-.19c.04-.15.1-.29.16-.42.02-.05.05-.09.07-.13.03-.04.16-.3.39-.78.01-.03.02-.06.03-.09,0-.03.02-.07.04-.11.02-.04.04-.09.05-.15.02-.06.04-.11.06-.16l.19-.4c.08-.18.13-.33.15-.43l-.56-.35c-.11-.04-.24-.1-.39-.17Z"/>
      <path class="cls-1" d="M9.89,124.48c-1.03-.03-1.92.44-2.42,1.28-.54.91-.54,2.14,0,3.05.48.82,1.34,1.29,2.34,1.29h.16c1,0,1.85-.47,2.33-1.28.54-.91.54-2.14,0-3.05-.49-.84-1.39-1.29-2.42-1.29Z"/>
      <path class="cls-1" d="M7.6,80.21c.18.44.61.71,1.06.71.14,0,.29-.03.43-.08l3.36-1.38,1.37,3.36c.18.44.6.7,1.06.7.14,0,.29-.03.43-.08h0c.58-.24.86-.9.62-1.49l-1.38-3.36,3.36-1.38c.58-.24.86-.9.62-1.49-.12-.28-.33-.5-.61-.62-.28-.12-.59-.12-.87,0l-3.36,1.38-1.38-3.36c-.12-.28-.33-.5-.61-.62-.28-.12-.59-.12-.88,0-.58.24-.86.9-.62,1.49l1.38,3.36-3.36,1.38c-.57.23-.85.89-.62,1.49h0Z"/>
      <path class="cls-1" d="M29.23,39.86c.19.14.42.21.66.21.06,0,.13,0,.19-.02l3.58-.61.61,3.58c.05.3.22.56.46.74.19.14.41.21.66.21.06,0,.13,0,.2-.02h0c.3-.05.56-.21.74-.46.18-.25.24-.55.19-.85l-.61-3.58,3.58-.61c.3-.05.56-.22.74-.46.18-.25.24-.55.19-.85-.05-.3-.22-.56-.46-.74-.25-.18-.55-.24-.85-.19l-3.58.61-.61-3.58c-.05-.3-.22-.56-.46-.74-.25-.18-.54-.24-.85-.19-.62.11-1.04.7-.93,1.32l.61,3.58-3.58.61c-.3.05-.56.22-.74.46-.18.25-.25.55-.19.85v.06c.07.28.23.52.47.68Z"/>
      <path class="cls-1" d="M10.62,113.4c.25,0,.5-.08.7-.24.23-.18.38-.43.43-.76h0c.04-.3-.04-.6-.23-.84-.19-.24-.46-.39-.76-.43l-9.47-1.19c-.3-.04-.6.04-.84.23-.24.19-.39.46-.43.76-.04.3.04.6.23.84.19.24.46.39.76.43l9.47,1.19s.1,0,.14,0Z"/>
      <path class="cls-1" d="M11.48,118.45c.2-.23.31-.52.29-.8v-.02c-.01-.3-.15-.58-.37-.79-.23-.21-.52-.32-.82-.29l-7.84.38c-.3.01-.58.15-.79.37-.2.23-.31.52-.29.82.03.61.54,1.08,1.14,1.08.02,0,.04,0,.06,0l7.85-.38c.3-.01.58-.15.79-.37Z"/>
      <path class="cls-1" d="M67.18,8.49c.18.25.44.41.75.45.06,0,.12.01.18.01.24,0,.48-.08.68-.22h0c.51-.37.61-1.09.24-1.59l-3.21-4.37c-.37-.51-1.09-.61-1.6-.24-.24.18-.4.45-.45.75-.05.3.03.6.21.85l3.21,4.37Z"/>
      <path class="cls-1" d="M6.89,104.95s.08,0,.12,0c.76-.03,1.37-.4,1.69-1.03.34-.66.28-1.53-.14-2.14-.11-.16-.25-.3-.4-.41-.12-.09-.14-.26-.13-.34.45-3.47.93-6.04,1.28-7.63.03-.13.13-.21.26-.24.56-.12,1.02-.46,1.28-.96.34-.66.28-1.53-.14-2.14-.39-.58-1.06-.87-1.78-.81-.73.04-1.33.41-1.65,1.03-.34.67-.29,1.5.13,2.13.03.05.07.1.11.14.09.09.13.19.11.29-.4,1.61-.87,4.29-1.35,8-.02.14-.11.25-.24.3-.4.17-.71.47-.92.87-.34.67-.29,1.51.13,2.13.36.54.96.84,1.62.82Z"/>
      <path class="cls-1" d="M18.74,68.17c.08.52.53.9,1.04.9.05,0,.1,0,.16-.01.57-.09.97-.62.89-1.2l-.81-5.43,5.52-2.79-.41-6.16,5.09-2c.54-.21.81-.82.6-1.37-.21-.54-.83-.81-1.37-.59l-6.52,2.57.42,6.31-5.63,2.85,1.04,6.94Z"/>
      <path class="cls-1" d="M43.99,29.92s.03,0,.05,0c.56,0,1.03-.44,1.05-1.01l.25-5.52,6.06-1.51.8-6.18,5.45-.83c.57-.09.97-.63.88-1.2-.09-.58-.62-.97-1.2-.88l-7.02,1.07-.82,6.33-6.19,1.55-.32,7.09c-.03.58.42,1.07,1,1.1Z"/>
      <path class="cls-1" d="M144.03,128.82c.48.82,1.33,1.28,2.33,1.28h.16c1,0,1.86-.47,2.34-1.29.53-.91.53-2.13,0-3.05-.5-.84-1.39-1.31-2.42-1.28-1.04,0-1.93.45-2.42,1.29-.53.91-.53,2.14,0,3.05Z"/>
      <path class="cls-1" d="M75.75,4.33c.12.21.27.39.43.55.49.48,1.16.74,1.91.74h.16c.75,0,1.42-.26,1.91-.74.17-.16.31-.35.43-.55.24-.41.36-.89.38-1.38,0-.05.02-.09.02-.14,0-.04-.01-.08-.02-.12-.02-.49-.14-.98-.38-1.4-.13-.21-.28-.4-.45-.56-.5-.48-1.19-.74-1.95-.73,0,0-.01,0-.02,0,0,0,0,0,0,0s0,0,0,0c0,0-.01,0-.02,0-.76-.01-1.45.24-1.95.73-.17.16-.32.35-.45.56-.24.42-.36.91-.38,1.4,0,.04-.02.08-.02.12,0,.05.02.09.02.14.02.48.14.96.38,1.38Z"/>
      <path class="cls-1" d="M137.79,75.73c-.24.58.04,1.25.62,1.49l3.36,1.38-1.38,3.36c-.24.58.04,1.25.62,1.49h0c.14.05.29.08.43.08.46,0,.88-.27,1.06-.7l1.37-3.36,3.36,1.38c.14.06.29.08.43.08.45,0,.88-.27,1.06-.71h0c.23-.6-.05-1.25-.62-1.49l-3.36-1.38,1.38-3.36c.24-.58-.04-1.25-.62-1.49-.28-.12-.59-.12-.88,0-.28.12-.5.34-.61.62l-1.38,3.36-3.36-1.38c-.28-.12-.59-.11-.87,0-.28.12-.5.34-.61.62Z"/>
      <path class="cls-1" d="M116.84,38.46l3.58.61-.61,3.58c-.05.3.02.6.19.85.18.25.44.41.74.46h0c.07,0,.13.01.2.01.24,0,.47-.07.66-.21.25-.18.41-.44.46-.74l.61-3.58,3.58.61c.06.01.13.02.19.02.23,0,.46-.07.66-.21.23-.17.39-.41.45-.68v-.06c.06-.3,0-.6-.18-.85-.18-.25-.44-.41-.74-.46l-3.58-.61.61-3.58c.11-.62-.31-1.21-.93-1.32-.31-.05-.61.02-.85.19-.25.18-.41.44-.46.74l-.61,3.58-3.58-.61c-.3-.05-.6.02-.85.19-.25.18-.41.44-.46.74-.05.3.02.61.19.85.18.25.44.41.74.46Z"/>
      <path class="cls-1" d="M155.89,110.17c-.24-.19-.54-.27-.84-.23l-9.47,1.19c-.3.04-.57.19-.76.43-.19.24-.27.54-.23.84h0c.05.33.2.58.43.76.2.16.45.24.7.24.05,0,.1,0,.14,0l9.47-1.19c.3-.04.57-.19.76-.43.19-.24.27-.54.23-.84-.04-.3-.19-.57-.43-.76Z"/>
      <path class="cls-1" d="M153.6,116.93l-7.84-.38c-.31-.03-.6.09-.82.29-.22.21-.36.49-.37.79v.02c-.02.29.09.58.29.8.2.23.48.36.79.37l7.85.38s.04,0,.06,0c.6,0,1.11-.47,1.14-1.08.02-.31-.09-.6-.29-.82-.2-.23-.48-.36-.79-.37Z"/>
      <path class="cls-1" d="M87.55,8.74c.2.15.44.22.68.22.06,0,.12,0,.18-.01.3-.05.57-.21.75-.45l3.21-4.37c.18-.24.26-.55.21-.85-.05-.3-.21-.57-.45-.75-.51-.37-1.23-.26-1.6.24l-3.21,4.37c-.37.51-.26,1.22.24,1.59h0Z"/>
      <path class="cls-1" d="M147.4,89.25c-.72-.07-1.39.23-1.78.81-.42.62-.48,1.48-.14,2.14.26.51.71.84,1.28.96.13.03.23.11.26.24.35,1.59.83,4.16,1.28,7.63,0,.08,0,.25-.13.34-.15.11-.29.25-.4.41-.42.62-.48,1.48-.14,2.14.32.63.94,1,1.69,1.03.04,0,.08,0,.12,0,.67.02,1.26-.28,1.62-.82.42-.62.47-1.46.13-2.13-.2-.4-.52-.69-.92-.87-.13-.05-.22-.17-.24-.3-.47-3.7-.94-6.39-1.35-8-.02-.09.02-.19.11-.29.04-.04.07-.09.11-.14.42-.62.47-1.46.13-2.13-.31-.62-.91-.99-1.65-1.03Z"/>
      <path class="cls-1" d="M126.9,49.51c-.54-.21-1.15.05-1.37.59-.21.54.05,1.15.6,1.37l5.09,2-.41,6.16,5.52,2.79-.81,5.43c-.09.58.31,1.11.89,1.2.05,0,.11.01.16.01.51,0,.96-.37,1.04-.9l1.04-6.94-5.63-2.85.42-6.31-6.52-2.57Z"/>
      <path class="cls-1" d="M98.69,14.86l5.45.83.8,6.18,6.06,1.51.25,5.52c.03.56.49,1.01,1.05,1.01.02,0,.03,0,.05,0,.58-.03,1.03-.52,1-1.1l-.32-7.09-6.19-1.55-.82-6.33-7.02-1.07c-.58-.09-1.11.31-1.2.88-.09.57.31,1.11.88,1.2Z"/>
    </g>
  </g>
</svg>